<?xml version="1.0" standalone="no"?>
<!DOCTYPE svg PUBLIC "-//W3C//DTD SVG 20010904//EN"
 "http://www.w3.org/TR/2001/REC-SVG-20010904/DTD/svg10.dtd">
<svg version="1.0" xmlns="http://www.w3.org/2000/svg"
 width="1310.000000pt" height="1310.000000pt" viewBox="0 0 1310.000000 1310.000000"
 preserveAspectRatio="xMidYMid meet">
<metadata>
Created by potrace 1.14, written by Peter Selinger 2001-2017
</metadata>
<g transform="translate(0.000000,1310.000000) scale(0.100000,-0.100000)"
fill="#000000" stroke="none">
<path d="M5949 9181 c-23 -19 -24 -23 -27 -210 l-3 -191 -230 0 -230 0 -24
-25 c-30 -29 -32 -64 -6 -96 19 -24 21 -24 255 -27 l236 -3 0 -252 0 -252
-270 -215 -270 -215 0 -197 c0 -197 0 -198 -22 -202 -13 -3 -106 -21 -206 -41
-202 -40 -470 -104 -660 -159 -68 -20 -125 -36 -128 -36 -2 0 -5 68 -6 152
l-3 151 -298 239 -298 240 -304 -244 -304 -243 -3 -379 -3 -379 -440 -119
c-242 -65 -647 -173 -900 -239 -253 -66 -561 -149 -685 -185 -442 -128 -955
-309 -967 -341 -3 -8 1 -21 9 -29 12 -13 40 -10 219 20 379 65 776 158 1345
317 181 50 617 169 969 264 l640 172 3 406 2 406 206 166 c120 97 212 164 220
161 8 -3 104 -78 214 -167 l200 -162 0 -228 c0 -126 4 -229 8 -229 5 0 42 11
83 25 299 103 825 231 1192 291 l107 17 0 233 0 233 207 167 c184 148 209 165
226 154 11 -6 107 -82 213 -167 l194 -155 0 -234 c0 -129 3 -234 8 -234 20 0
214 -34 352 -61 292 -58 586 -133 876 -224 78 -25 144 -45 148 -45 3 0 7 105
8 232 l3 233 204 164 c184 148 206 163 224 152 11 -7 107 -83 213 -168 l194
-155 0 -412 0 -412 858 -74 c471 -40 860 -76 864 -79 3 -3 23 -93 42 -200 20
-107 38 -197 41 -199 17 -18 952 -242 1381 -331 477 -100 1075 -200 1111 -187
8 4 13 15 11 28 -2 19 -19 29 -98 56 -397 138 -1350 390 -2030 537 -118 25
-216 47 -217 49 -2 1 -20 96 -42 210 -21 114 -40 208 -42 210 -4 3 -1651 146
-1681 146 -17 0 -18 24 -18 374 l0 374 -300 242 -301 241 -24 -18 c-13 -10
-150 -119 -304 -243 l-281 -225 0 -149 c0 -124 -2 -147 -14 -143 -88 34 -551
150 -766 192 -74 14 -159 31 -187 36 l-53 10 0 199 0 198 -260 209 -260 208 0
258 0 257 229 0 c216 0 230 1 255 21 18 14 26 30 26 52 0 72 -18 77 -284 77
l-226 0 0 188 c0 184 -1 189 -23 210 -29 27 -67 28 -98 3z"/>
<path d="M4245 5906 c-41 -18 -83 -69 -91 -111 -15 -80 38 -146 150 -186 86
-30 116 -57 116 -103 0 -51 -36 -76 -109 -76 -54 0 -69 6 -133 52 -15 11 -21
9 -40 -10 l-23 -23 41 -38 c30 -28 56 -42 96 -51 137 -31 248 36 248 148 0 81
-43 130 -146 168 -41 15 -85 37 -99 50 -43 40 -29 95 31 114 45 15 96 6 132
-25 l29 -24 24 25 c29 31 20 49 -41 81 -50 26 -136 31 -185 9z"/>
<path d="M4916 5905 c-88 -31 -158 -118 -176 -218 -20 -104 27 -225 110 -282
43 -30 118 -55 165 -55 46 0 121 25 167 55 l40 27 -28 29 c-24 26 -29 27 -44
14 -51 -46 -156 -58 -227 -26 -64 30 -97 87 -101 176 -7 123 51 201 163 219
46 8 126 -13 156 -40 19 -17 21 -17 47 10 l27 27 -30 25 c-64 51 -185 69 -269
39z"/>
<path d="M5900 5898 c-58 -30 -83 -75 -77 -141 6 -71 30 -96 136 -142 130 -56
162 -105 106 -160 -20 -21 -34 -25 -80 -25 -61 0 -86 9 -126 46 l-25 24 -24
-25 c-30 -32 -22 -48 45 -90 42 -26 58 -30 119 -30 127 1 191 53 191 156 0 89
-27 117 -157 170 -89 37 -108 53 -108 94 0 76 99 98 183 41 l35 -24 23 24 c22
24 22 24 3 45 -52 59 -166 76 -244 37z"/>
<path d="M6853 5899 c-44 -21 -83 -82 -83 -127 0 -70 54 -127 155 -163 110
-39 146 -99 90 -154 -20 -21 -34 -25 -80 -25 -61 0 -86 9 -126 46 l-25 24 -25
-26 -24 -26 41 -38 c97 -90 274 -74 326 30 50 99 2 188 -128 236 -41 15 -85
37 -99 50 -43 40 -29 95 31 114 45 15 88 7 129 -25 l32 -24 24 25 c29 31 20
49 -41 81 -57 30 -139 31 -197 2z"/>
<path d="M3210 5635 l0 -275 175 0 175 0 0 35 0 35 -135 0 -135 0 0 240 0 240
-40 0 -40 0 0 -275z"/>
<path d="M3801 5888 c-5 -13 -54 -134 -110 -270 -56 -135 -101 -249 -101 -253
0 -3 18 -5 41 -3 40 3 42 5 63 58 l22 55 124 0 124 0 22 -55 c21 -53 23 -55
64 -58 51 -4 59 -36 -74 290 -102 251 -104 253 -135 256 -25 3 -33 -1 -40 -20z
m82 -210 c20 -51 39 -101 43 -110 6 -16 -2 -18 -86 -18 -84 0 -92 2 -86 18 35
95 81 202 86 202 4 0 23 -42 43 -92z"/>
<path d="M5438 5817 c-20 -50 -70 -174 -111 -274 l-75 -183 43 0 43 0 22 60
22 60 123 0 123 0 24 -60 23 -60 44 0 c30 0 42 4 38 13 -3 6 -53 130 -112 275
l-108 262 -31 0 c-30 0 -32 -4 -68 -93z m117 -154 l42 -108 -85 -3 c-46 -2
-87 0 -90 3 -3 2 14 54 38 115 24 61 45 108 48 105 3 -3 24 -53 47 -112z"/>
<path d="M6421 5888 c-5 -13 -53 -129 -106 -258 -54 -129 -99 -243 -102 -252
-4 -15 1 -18 35 -18 40 0 41 0 64 60 l23 61 124 -3 125 -3 22 -55 c21 -53 23
-55 64 -58 51 -4 59 -37 -74 289 -103 251 -104 254 -135 257 -25 3 -33 -1 -40
-20z m82 -210 c20 -51 39 -101 43 -110 6 -16 -2 -18 -85 -18 -50 0 -91 3 -91
8 0 15 83 212 89 212 4 0 24 -42 44 -92z"/>
<path d="M7380 5635 l0 -275 130 0 c151 0 214 17 274 76 61 59 81 107 81 199
0 70 -4 87 -30 135 -33 60 -96 114 -153 130 -20 5 -97 10 -169 10 l-133 0 0
-275z m295 186 c106 -48 143 -177 85 -290 -36 -72 -102 -101 -227 -101 l-73 0
0 205 0 205 88 0 c63 0 98 -6 127 -19z"/>
<path d="M7970 5635 l0 -275 185 0 185 0 0 35 0 35 -145 0 -145 0 0 90 0 90
130 0 130 0 0 35 0 35 -130 0 -130 0 0 80 0 80 140 0 140 0 0 35 0 35 -180 0
-180 0 0 -275z"/>
<path d="M8440 5635 l0 -275 175 0 175 0 0 35 0 34 -137 3 -138 3 -3 238 -2
237 -35 0 -35 0 0 -275z"/>
<path d="M1913 4855 c-214 -58 -353 -243 -353 -469 0 -147 51 -268 151 -360
101 -94 213 -132 358 -123 97 5 176 31 248 81 74 51 75 58 19 115 l-49 49 -48
-33 c-70 -48 -113 -60 -209 -59 -72 0 -93 4 -135 26 -64 34 -118 90 -147 153
-19 41 -23 67 -23 150 0 117 18 166 84 238 60 64 126 91 226 91 91 -1 151 -19
206 -64 l36 -29 52 53 53 53 -41 35 c-110 94 -284 131 -428 93z"/>
<path d="M6355 4856 c-80 -19 -143 -54 -211 -119 -204 -190 -203 -514 0 -705
106 -99 217 -139 356 -129 183 13 345 133 410 305 27 70 37 207 21 282 -56
261 -319 428 -576 366z m244 -167 c59 -25 124 -91 154 -157 18 -38 22 -66 22
-147 0 -117 -17 -165 -84 -238 -60 -64 -126 -91 -226 -92 -133 0 -227 60 -281
177 -24 54 -28 76 -28 153 -1 78 3 98 27 150 44 93 103 146 197 172 60 17 157
9 219 -18z"/>
<path d="M2791 4838 c-5 -13 -95 -225 -200 -472 -105 -246 -191 -450 -191
-452 0 -3 39 -3 87 -2 l87 3 35 88 35 87 210 -2 210 -3 36 -85 36 -85 87 -3
c48 -1 87 1 86 5 0 4 -89 217 -198 473 l-197 465 -57 3 c-52 3 -58 1 -66 -20z
m139 -424 c39 -93 70 -172 70 -176 0 -5 -65 -8 -145 -8 -80 0 -145 4 -145 9 0
4 28 75 61 157 34 82 65 160 70 173 5 13 12 22 15 19 2 -3 36 -81 74 -174z"/>
<path d="M3437 4853 c-4 -3 -7 -217 -7 -475 l0 -468 85 0 85 0 2 294 3 294
130 -221 131 -222 64 0 65 0 135 222 135 222 3 -295 2 -294 85 0 85 0 0 475 0
476 -72 -3 -73 -3 -180 -307 c-99 -170 -182 -308 -185 -308 -3 0 -72 120 -155
267 -82 146 -162 286 -177 310 l-28 43 -63 0 c-35 0 -67 -3 -70 -7z"/>
<path d="M4660 4385 l0 -476 78 3 77 3 0 470 0 470 -77 3 -78 3 0 -476z"/>
<path d="M5060 4385 l0 -475 80 0 80 0 2 320 3 320 249 -320 249 -320 53 0 54
0 0 475 0 476 -77 -3 -78 -3 -5 -318 -5 -317 -249 320 -249 320 -53 0 -54 0 0
-475z"/>
<path d="M7350 4386 l0 -476 75 0 75 0 0 200 0 200 23 -1 c16 0 61 -49 182
-200 l159 -199 99 0 c93 0 99 1 86 17 -8 10 -77 94 -154 188 -78 93 -144 175
-148 182 -5 8 11 17 50 28 78 23 134 64 166 122 59 110 43 238 -41 322 -75 75
-110 83 -359 89 l-213 4 0 -476z m423 311 c62 -40 83 -116 51 -183 -26 -55
-61 -68 -201 -72 l-123 -4 0 142 0 142 123 -3 c97 -3 129 -8 150 -22z"/>
<path d="M8210 4385 l0 -475 305 0 305 0 0 75 0 75 -225 0 -225 0 0 130 0 130
173 2 172 3 3 68 3 67 -176 0 -175 0 0 125 0 125 220 0 220 0 0 75 0 75 -300
0 -300 0 0 -475z"/>
<path d="M9257 4853 c-8 -13 -389 -907 -394 -925 -5 -16 3 -18 79 -18 l85 0
38 90 38 90 209 -2 210 -3 36 -87 35 -88 84 0 c60 0 83 3 83 13 0 7 -88 219
-195 472 l-194 460 -55 3 c-30 2 -56 -1 -59 -5z m132 -442 c39 -96 69 -176 67
-178 -2 -2 -69 -2 -149 -1 l-146 3 65 155 c82 199 84 203 88 199 2 -2 36 -82
75 -178z"/>
<path d="M9885 4838 c-3 -7 -4 -220 -3 -473 l3 -460 275 0 275 0 3 73 3 72
-201 0 -200 0 0 400 0 400 -75 0 c-51 0 -77 -4 -80 -12z"/>
</g>
</svg>
