<?xml version="1.0" encoding="utf-8"?>
<!-- Generator: Adobe Illustrator 26.0.1, SVG Export Plug-In . SVG Version: 6.00 Build 0)  -->
<svg version="1.1" id="Layer_3" xmlns="http://www.w3.org/2000/svg" xmlns:xlink="http://www.w3.org/1999/xlink" x="0px" y="0px"
	 viewBox="0 0 1352.44 560.4" style="enable-background:new 0 0 1352.44 560.4;" xml:space="preserve">
<style type="text/css">
	.st0{fill:#877129;}
</style>
<g>
	<path class="st0" d="M1350.46,399.01c-20.56-7.36-41.4-13.68-62.35-19.73c-60.85-17.02-122.2-32.24-184.08-45.06
		c-2.48-13.28-7.83-41.82-8.39-44.88l-7.19-0.62l-172.23-14.95v-74.08v-4.55l-3.55-2.85l-54.3-43.66l-5.95-4.79l-5.95,4.79
		l-54.3,43.66c0,0-3.55,2.85-3.55,2.85c0.04,0.77-0.01,18.73-0.02,31.64c-35.38-10.79-71.42-19.43-107.96-25.53
		c0-10.94,0-37.49,0-37.49v-4.55l-3.55-2.85l-51.81-41.66V59.68h46.8c4.14,0,7.5-3.36,7.5-7.5s-3.36-7.5-7.5-7.5h-46.8V7.5
		c0-4.14-3.36-7.5-7.5-7.5s-7.5,3.36-7.5,7.5v37.18h-46.8c-4.14,0-7.5,3.36-7.5,7.5s3.36,7.5,7.5,7.5h46.8v53.5
		c-5.95,4.79-53.69,43.17-53.69,43.17c0,0-3.55,2.85-3.55,2.85v4.55c0,0,0,24.39,0,37.49c-36.54,6.1-72.6,14.75-107.99,25.54
		c0-11.85,0-27.1,0-27.1v-4.55l-3.55-2.85l-54.3-43.66l-5.95-4.79l-5.95,4.79L321,192.28l-3.55,2.85v4.55v75.5
		c-46.33,12.43-111.46,30.32-155.24,41.46c-40.71,10.41-81.16,21.8-120.9,35.5c-13.24,4.65-26.46,9.41-39.48,14.89
		c-1.21,0.51-1.99,1.78-1.81,3.15c0.21,1.64,1.72,2.81,3.36,2.59c14.01-1.8,27.83-4.33,41.61-6.97c20.65-4.04,41.11-8.75,61.51-13.8
		c33.99-8.34,67.54-18.34,101.3-27.55c25.78-6.98,95.01-25.66,121.62-32.82c0,0,7.03-1.89,7.03-1.89c0,0.07,0-67.12,0-85.52
		c9.12-7.33,33.47-26.91,44.8-36.02c8.75,7.03,39.33,31.62,44.8,36.02c0,7.15,0,35.46,0,35.46v13.02c0,0,12.4-3.98,12.4-3.98
		c43.62-14.02,88.33-24.57,133.58-31.28c0.02-3.97-0.02-36.31-0.01-49.15c5.46-4.39,36.06-28.99,44.81-36.03
		c8.75,7.03,39.34,31.63,44.81,36.03c0,12.8-0.03,45.1,0,49.15c49.54,7.26,98.42,19.47,145.99,35.26
		c0.02-7.82-0.02-35.36-0.01-48.48l44.81-36.03l44.8,36.02v78.24v8.71l8.68,0.75l173.71,15.08c2.33,12.45,6.91,36.94,6.9,36.95
		l1.03,5.83c0,0,6.14,1.68,6.14,1.68c73.61,19.3,147.91,36.23,222.99,48.76c10.76,1.72,21.55,3.32,32.42,4.57
		c1.35,0.16,2.68-0.63,3.16-1.96C1352.82,401.29,1352.02,399.58,1350.46,399.01z"/>
	<path class="st0" d="M214.27,542.02c-4.21,1.84-9.34,2.77-15.4,2.77c-4.92,0-9.41-0.85-13.48-2.55c-4.07-1.7-7.59-4.14-10.57-7.31
		c-2.98-3.17-5.27-6.93-6.88-11.28c-1.61-4.35-2.41-9.13-2.41-14.33c0-5.2,0.8-9.98,2.41-14.33c1.61-4.35,3.9-8.11,6.88-11.28
		c2.98-3.17,6.5-5.6,10.57-7.31c4.07-1.7,8.56-2.55,13.48-2.55c5.58,0,10.48,0.9,14.69,2.7c4.21,1.8,7.78,4.3,10.71,7.52
		l11.07-11.07c-4.54-4.54-9.74-8.13-15.61-10.78c-5.87-2.65-12.82-3.97-20.86-3.97c-7.19,0-13.84,1.32-19.94,3.97
		c-6.1,2.65-11.42,6.29-15.96,10.93c-4.54,4.64-8.04,10.05-10.5,16.25c-2.46,6.2-3.69,12.84-3.69,19.94s1.23,13.74,3.69,19.94
		c2.46,6.2,5.96,11.63,10.5,16.32c4.54,4.68,9.86,8.33,15.96,10.93c6.1,2.6,12.75,3.9,19.94,3.9c7.95,0,14.99-1.33,21.14-3.97
		c6.15-2.65,11.49-6.29,16.03-10.93l-11.07-11.07C222.05,537.65,218.48,540.18,214.27,542.02z"/>
	<path class="st0" d="M279.99,459.65l-42.25,99.33h17.9l7.89-19.16h44.14l7.82,19.16h18.19l-41.96-99.33H279.99z M269.38,525.64
		l16.32-39.6l16.17,39.6H269.38z"/>
	<path class="st0" d="M962.35,459.65l-42.25,99.33H938l7.89-19.16h44.14l7.82,19.16h18.19l-41.96-99.33H962.35z M951.74,525.64
		l16.32-39.6l16.17,39.6H951.74z"/>
	<polygon class="st0" points="399.39,525.83 361.87,459.65 346.86,459.65 346.86,558.98 364.55,558.98 364.55,496.12 393.18,544.84 
		405.49,544.84 435.33,495.88 435.33,558.98 453.02,558.98 453.02,459.65 438.01,459.65 	"/>
	<rect x="476.54" y="459.65" class="st0" width="16.32" height="99.33"/>
	<polygon class="st0" points="583.55,528.19 530.35,459.65 518.84,459.65 518.84,558.98 535.38,558.98 535.38,490.44 588.59,558.98 
		600.09,558.98 600.09,459.65 583.55,459.65 	"/>
	<path class="st0" d="M702.8,473.06c-4.58-4.68-9.9-8.32-15.93-10.93c-6.04-2.6-12.56-3.9-19.58-3.9c-7.02,0-13.55,1.3-19.58,3.9
		c-6.04,2.6-11.32,6.24-15.86,10.93c-4.54,4.68-8.1,10.1-10.67,16.25c-2.57,6.15-3.86,12.77-3.86,19.86s1.29,13.74,3.86,19.94
		c2.57,6.2,6.15,11.64,10.74,16.32c4.58,4.68,9.92,8.35,16,11c6.08,2.65,12.63,3.97,19.65,3.97c6.92,0,13.4-1.33,19.44-3.97
		c6.04-2.65,11.32-6.29,15.86-10.93c4.54-4.63,8.09-10.05,10.67-16.25c2.57-6.19,3.86-12.84,3.86-19.94s-1.29-13.74-3.86-19.94
		C710.97,483.19,707.39,477.75,702.8,473.06z M696.56,527.69c-2.86,5.34-6.79,9.53-11.79,12.56c-5.01,3.03-10.83,4.54-17.48,4.54
		c-4.87,0-9.36-0.87-13.47-2.62c-4.12-1.75-7.65-4.19-10.6-7.31c-2.95-3.12-5.24-6.88-6.88-11.28c-1.64-4.4-2.46-9.2-2.46-14.4
		c0-7,1.43-13.15,4.28-18.45c2.85-5.3,6.78-9.44,11.79-12.42c5.01-2.98,10.78-4.47,17.33-4.47c4.96,0,9.48,0.85,13.55,2.55
		c4.07,1.7,7.6,4.14,10.6,7.31c2.99,3.17,5.31,6.91,6.95,11.21c1.64,4.3,2.46,9.06,2.46,14.26
		C700.84,516.18,699.41,522.35,696.56,527.69z"/>
	<path class="st0" d="M814.08,513.29c4.73-2.36,8.39-5.68,11-9.93c2.6-4.26,3.9-9.27,3.9-15.04c0-5.48-1.3-10.38-3.9-14.69
		c-2.6-4.3-6.27-7.71-11-10.22c-4.73-2.5-10.22-3.76-16.46-3.76h-20.86h-5.11h-11.21v99.33h16.32v-42.14h4.21l33.96,42.14h20.58
		l-34.86-42.25C805.65,516.4,810.13,515.27,814.08,513.29z M776.76,503.36v-29.51h20.15c5.01,0,8.89,1.42,11.64,4.26
		c2.74,2.84,4.11,6.34,4.11,10.5c0,4.64-1.4,8.25-4.19,10.85c-2.79,2.6-6.69,3.9-11.71,3.9H776.76z"/>
	<polygon class="st0" points="868.15,515.42 905.06,515.42 905.06,501.09 868.15,501.09 868.15,474.55 914.89,474.55 914.89,459.65 
		868.15,459.65 863.05,459.65 851.84,459.65 851.84,558.98 863.05,558.98 868.15,558.98 915.6,558.98 915.6,544.08 868.15,544.08 	
		"/>
	<polygon class="st0" points="1044.96,460.65 1028.64,460.65 1028.64,559.98 1039.85,559.98 1044.96,559.98 1086.78,559.98 
		1086.78,545.08 1044.96,545.08 	"/>
	<polygon class="st0" points="323.32,347.74 323.32,405.89 328.68,405.89 331.19,405.89 359.85,405.89 359.85,398.68 331.19,398.68 
		331.19,347.74 	"/>
	<path class="st0" d="M402.64,392.73l5.22,13.15h8.55l-23.71-58.15h-5.7l-23.8,58.15h8.38l5.27-13.15H402.64z M389.8,360.38
		l10.11,25.48H379.6L389.8,360.38z"/>
	<path class="st0" d="M453.77,377.65c-1.68-1.29-3.52-2.35-5.53-3.18c-2.01-0.84-4.04-1.6-6.07-2.3c-2.04-0.7-3.9-1.47-5.57-2.3
		c-1.68-0.84-3.03-1.86-4.06-3.06c-1.03-1.2-1.55-2.78-1.55-4.73c0-2.46,0.92-4.37,2.76-5.74c1.84-1.37,4.33-2.05,7.46-2.05
		c2.57,0,4.85,0.5,6.83,1.51c1.98,1.01,3.84,2.51,5.57,4.53l5.36-5.36c-1.9-2.4-4.36-4.34-7.37-5.82
		c-3.02-1.48-6.42-2.22-10.22-2.22c-3.46,0-6.58,0.63-9.34,1.89c-2.76,1.26-4.94,3.04-6.54,5.36c-1.59,2.32-2.39,5.13-2.39,8.42
		c0,2.96,0.52,5.42,1.55,7.37c1.03,1.96,2.39,3.53,4.06,4.73c1.68,1.2,3.52,2.21,5.53,3.02c2.01,0.81,4.02,1.57,6.03,2.26
		c2.01,0.7,3.87,1.48,5.57,2.35c1.7,0.87,3.06,1.97,4.06,3.31c1.01,1.34,1.51,3.1,1.51,5.28c0,2.63-1.05,4.69-3.14,6.2
		c-2.09,1.51-4.87,2.26-8.34,2.26c-3.52,0-6.48-0.66-8.88-1.97c-2.4-1.31-4.52-3.25-6.37-5.82l-5.36,5.36
		c2.51,3.18,5.39,5.61,8.63,7.29c3.24,1.68,7.15,2.51,11.73,2.51c6.03,0,10.82-1.45,14.37-4.36c3.55-2.9,5.32-6.93,5.32-12.07
		c0-3.07-0.52-5.63-1.55-7.67C456.8,380.6,455.45,378.94,453.77,377.65z"/>
	<path class="st0" d="M535.46,397.84l-5.45-5.36c-1.84,2.07-4.11,3.7-6.79,4.9c-2.68,1.2-5.84,1.8-9.47,1.8
		c-3.07,0-5.89-0.54-8.46-1.63c-2.57-1.09-4.8-2.64-6.7-4.65c-1.9-2.01-3.37-4.38-4.4-7.12c-1.03-2.74-1.55-5.72-1.55-8.96
		c0-3.24,0.52-6.23,1.55-8.97c1.03-2.74,2.5-5.11,4.4-7.12c1.9-2.01,4.13-3.56,6.7-4.65c2.57-1.09,5.39-1.63,8.46-1.63
		c3.41,0,6.44,0.59,9.09,1.76c2.65,1.17,4.9,2.79,6.75,4.86l5.45-5.45c-2.68-2.68-5.75-4.8-9.22-6.37
		c-3.46-1.56-7.49-2.35-12.07-2.35c-4.19,0-8.06,0.77-11.6,2.3c-3.55,1.54-6.65,3.66-9.3,6.37c-2.65,2.71-4.71,5.88-6.16,9.51
		c-1.45,3.63-2.18,7.54-2.18,11.73c0,4.13,0.73,8.02,2.18,11.65c1.45,3.63,3.5,6.82,6.16,9.55c2.65,2.74,5.77,4.87,9.34,6.41
		c3.57,1.54,7.46,2.3,11.65,2.3c4.52,0,8.59-0.78,12.19-2.35C529.64,402.82,532.78,400.64,535.46,397.84z"/>
	<path class="st0" d="M578.75,392.73l5.22,13.15h8.55l-23.71-58.15h-5.7l-23.8,58.15h8.38l5.27-13.15H578.75z M565.91,360.38
		l10.11,25.48h-20.31L565.91,360.38z"/>
	<path class="st0" d="M635.5,390.3c0-3.07-0.52-5.63-1.55-7.67c-1.03-2.04-2.39-3.7-4.06-4.98c-1.68-1.29-3.52-2.35-5.53-3.18
		c-2.01-0.84-4.04-1.6-6.07-2.3c-2.04-0.7-3.9-1.47-5.57-2.3c-1.68-0.84-3.03-1.86-4.06-3.06c-1.03-1.2-1.55-2.78-1.55-4.73
		c0-2.46,0.92-4.37,2.76-5.74c1.84-1.37,4.33-2.05,7.46-2.05c2.57,0,4.85,0.5,6.83,1.51c1.98,1.01,3.84,2.51,5.57,4.53l5.36-5.36
		c-1.9-2.4-4.36-4.34-7.37-5.82c-3.02-1.48-6.42-2.22-10.22-2.22c-3.46,0-6.58,0.63-9.34,1.89c-2.76,1.26-4.94,3.04-6.54,5.36
		c-1.59,2.32-2.39,5.13-2.39,8.42c0,2.96,0.52,5.42,1.55,7.37c1.03,1.96,2.39,3.53,4.06,4.73c1.68,1.2,3.52,2.21,5.53,3.02
		c2.01,0.81,4.02,1.57,6.03,2.26c2.01,0.7,3.87,1.48,5.57,2.35c1.7,0.87,3.06,1.97,4.06,3.31c1.01,1.34,1.51,3.1,1.51,5.28
		c0,2.63-1.05,4.69-3.14,6.2c-2.09,1.51-4.87,2.26-8.34,2.26c-3.52,0-6.48-0.66-8.88-1.97c-2.4-1.31-4.52-3.25-6.37-5.82l-5.36,5.36
		c2.51,3.18,5.39,5.61,8.63,7.29c3.24,1.68,7.15,2.51,11.73,2.51c6.03,0,10.82-1.45,14.37-4.36
		C633.73,399.46,635.5,395.44,635.5,390.3z"/>
	<path class="st0" d="M653.67,392.73h25.79l5.22,13.15h8.55l-23.71-58.15h-5.7l-23.8,58.15h8.38L653.67,392.73z M666.62,360.38
		l10.11,25.48h-20.31L666.62,360.38z"/>
	<path class="st0" d="M730.6,377.65c-1.68-1.29-3.52-2.35-5.53-3.18s-4.04-1.6-6.07-2.3c-2.04-0.7-3.9-1.47-5.57-2.3
		s-3.03-1.86-4.06-3.06c-1.03-1.2-1.55-2.78-1.55-4.73c0-2.46,0.92-4.37,2.77-5.74c1.84-1.37,4.33-2.05,7.46-2.05
		c2.57,0,4.84,0.5,6.83,1.51c1.98,1.01,3.84,2.51,5.57,4.53l5.36-5.36c-1.9-2.4-4.36-4.34-7.37-5.82
		c-3.02-1.48-6.42-2.22-10.22-2.22c-3.46,0-6.58,0.63-9.34,1.89c-2.76,1.26-4.94,3.04-6.54,5.36c-1.59,2.32-2.39,5.13-2.39,8.42
		c0,2.96,0.51,5.42,1.55,7.37c1.03,1.96,2.39,3.53,4.06,4.73c1.68,1.2,3.52,2.21,5.53,3.02c2.01,0.81,4.02,1.57,6.03,2.26
		c2.01,0.7,3.87,1.48,5.57,2.35c1.7,0.87,3.06,1.97,4.06,3.31s1.51,3.1,1.51,5.28c0,2.63-1.05,4.69-3.14,6.2s-4.87,2.26-8.34,2.26
		c-3.52,0-6.48-0.66-8.88-1.97c-2.4-1.31-4.52-3.25-6.37-5.82l-5.36,5.36c2.51,3.18,5.39,5.61,8.63,7.29
		c3.24,1.68,7.15,2.51,11.73,2.51c6.03,0,10.82-1.45,14.37-4.36c3.55-2.9,5.32-6.93,5.32-12.07c0-3.07-0.52-5.63-1.55-7.67
		C733.63,380.6,732.28,378.94,730.6,377.65z"/>
	<path class="st0" d="M785.98,405.89c4.19,0,8.09-0.73,11.69-2.18c3.6-1.45,6.72-3.49,9.34-6.12c2.62-2.62,4.68-5.71,6.16-9.26
		c1.48-3.55,2.22-7.39,2.22-11.52c0-4.19-0.74-8.04-2.22-11.56c-1.48-3.52-3.55-6.59-6.2-9.22c-2.65-2.62-5.78-4.66-9.38-6.12
		c-3.6-1.45-7.53-2.18-11.77-2.18h-13.66h-2.6h-5.28v58.15h5.19h2.68H785.98z M772.16,354.94h13.49c4.25,0,7.99,0.92,11.23,2.76
		c3.24,1.84,5.78,4.41,7.62,7.71c1.84,3.3,2.76,7.07,2.76,11.31c0,4.3-0.91,8.1-2.72,11.4c-1.82,3.3-4.34,5.88-7.58,7.75
		c-3.24,1.87-7.01,2.81-11.31,2.81h-13.49V354.94z"/>
	<polygon class="st0" points="864.57,354.94 864.57,347.74 834.16,347.74 831.65,347.74 826.28,347.74 826.28,405.89 831.65,405.89 
		834.16,405.89 864.99,405.89 864.99,398.68 834.16,398.68 834.16,379.58 862.23,379.58 862.23,372.71 834.16,372.71 834.16,354.94 
			"/>
	<polygon class="st0" points="875.72,347.74 875.72,405.89 881.08,405.89 883.59,405.89 912.25,405.89 912.25,398.68 883.59,398.68 
		883.59,347.74 	"/>
</g>
</svg>
